<svg data-name="Group 7" xmlns="http://www.w3.org/2000/svg" width="18.342" height="18.302">
  <path d="M4.269 5.881H.587a.3.3 0 0 0-.3.3V18.01a.3.3 0 0 0 .3.3h3.682a.3.3 0 0 0 .3-.3V6.177a.3.3 0 0 0-.3-.296ZM2.43 0a2.428 2.428 0 1 0 2.428 2.427A2.431 2.431 0 0 0 2.43 0ZM13.635 5.587A4.325 4.325 0 0 0 10.4 6.945v-.768a.3.3 0 0 0-.3-.3H6.574a.3.3 0 0 0-.3.3v11.829a.3.3 0 0 0 .3.3h3.674a.3.3 0 0 0 .3-.3v-5.853c0-1.972.536-2.741 1.911-2.741 1.5 0 1.616 1.232 1.616 2.842v5.751a.3.3 0 0 0 .3.3h3.676a.3.3 0 0 0 .3-.3v-6.489c-.009-2.931-.568-5.929-4.716-5.929Z" fill="#2652bf"/>
</svg>
