<svg xmlns="http://www.w3.org/2000/svg" xmlns:xlink="http://www.w3.org/1999/xlink" version="1.1" id="Warstwa_1" x="0px" y="0px" viewBox="0 0 470.9 307.1" style="enable-background:new 0 0 470.9 307.1;" xml:space="preserve">
<style type="text/css">
	.st1{fill:#6B7481;}
</style>
<g>
	<path class="st1" d="M3.9,286.7c0-1.6,0-3.1-0.1-4.6c-0.1-1.5-0.1-3-0.2-4.6c0.9,0,1.8,0.1,2.7,0.1c0.9,0,1.8,0.1,2.7,0.1   c0.9,0,1.8,0,2.7-0.1c0.9-0.1,1.8-0.1,2.7-0.1c2.1,0,3.9,0.3,5.4,0.8c1.5,0.5,2.7,1.3,3.6,2.3c0.9,1,1.6,2.2,2.1,3.7   c0.4,1.5,0.7,3.1,0.7,4.9c0,2.4-0.4,4.4-1.2,6c-0.8,1.6-1.9,2.9-3.1,3.9c-1.3,1-2.7,1.7-4.2,2.1c-1.5,0.4-3,0.6-4.4,0.6   c-0.8,0-1.6,0-2.4,0c-0.8,0-1.6,0-2.4,0c-0.8,0-1.6,0-2.4,0c-0.8,0-1.6,0-2.4,0.1c0.1-1.5,0.1-3,0.2-4.5c0.1-1.5,0.1-3.1,0.1-4.6   V286.7z M6.8,292.8c0,2.6,0.1,5.1,0.2,7.5c0.5,0.1,1.2,0.2,2,0.3c0.9,0.1,1.7,0.1,2.6,0.1c1.3,0,2.6-0.2,3.9-0.5   c1.3-0.3,2.5-0.9,3.5-1.7c1-0.9,1.9-2,2.5-3.5c0.7-1.5,1-3.4,1-5.7c0-2.1-0.3-3.8-0.8-5.1c-0.5-1.3-1.2-2.4-2.1-3.2   c-0.9-0.8-2-1.3-3.2-1.6c-1.2-0.3-2.6-0.4-4.1-0.4c-1.1,0-2.1,0-3,0.1c-0.9,0.1-1.8,0.2-2.5,0.2c-0.1,1.1-0.1,2.3-0.2,3.6   c0,1.2-0.1,2.5-0.1,3.8V292.8z"/>
	<path class="st1" d="M49.3,282.1c-0.1-1.5-0.1-3-0.2-4.6c1.1,0,2.1,0.1,3.2,0.1c1.1,0,2.1,0.1,3.2,0.1c1.1,0,2.1,0,3.2-0.1   c1,0,2.1-0.1,3.2-0.1c-0.1,0.4-0.1,0.7-0.1,1.1c0,0.4,0,0.7,0.1,1.1c-0.8,0-1.5-0.1-2.1-0.1c-0.6,0-1.3-0.1-2-0.1   c-0.7,0-1.5-0.1-2.3-0.1c-0.8,0-1.8-0.1-3-0.1c0,0.8-0.1,1.5-0.1,2.2c0,0.7-0.1,1.5-0.1,2.3c0,0.9,0,1.8,0,2.7c0,0.9,0,1.5,0,2   c1,0,2,0,2.8,0c0.8,0,1.6-0.1,2.3-0.1c0.7,0,1.3-0.1,1.9-0.1c0.6,0,1.1-0.1,1.7-0.1c-0.1,0.4-0.1,0.7-0.1,1.1c0,0.4,0,0.7,0.1,1.1   c-0.6-0.1-1.3-0.1-2.2-0.2c-0.8,0-1.6-0.1-2.5-0.1c-0.8,0-1.6,0-2.3,0c-0.7,0-1.3,0-1.7,0c0,0.2,0,0.4,0,0.7c0,0.2,0,0.6,0,0.9v1.4   v2.1c0,1.4,0,2.5,0,3.3c0,0.9,0,1.5,0.1,2c0.8,0,1.6,0,2.5,0c0.9,0,1.8,0,2.7-0.1c0.9,0,1.7-0.1,2.5-0.1c0.8-0.1,1.4-0.1,2-0.3   c0,0.2-0.1,0.3-0.1,0.6c0,0.2,0,0.4,0,0.6c0,0.4,0,0.7,0.1,0.9c-1.1,0-2.1-0.1-3.2-0.1c-1.1,0-2.1,0-3.2,0c-1.1,0-2.2,0-3.2,0   c-1.1,0-2.1,0-3.2,0.1c0.1-1.5,0.1-3,0.2-4.5c0.1-1.5,0.1-3,0.1-4.6v-6.1C49.4,285.1,49.3,283.6,49.3,282.1z"/>
	<path class="st1" d="M96.3,292.7c-3.1-3.3-6.2-6.6-9.3-9.9c0,0.7,0,1.6-0.1,2.7c0,1.1,0,2.6,0,4.6c0,0.5,0,1.1,0,1.9s0,1.5,0,2.3   c0,0.8,0,1.6,0.1,2.5c0,0.8,0,1.6,0.1,2.3c0,0.7,0,1.3,0.1,1.9c0,0.5,0,0.9,0.1,1.1c-0.4,0-0.8-0.1-1.2-0.1c-0.5,0-0.9,0-1.3,0.1   c0-0.2,0.1-0.7,0.2-1.3c0.1-0.6,0.1-1.4,0.2-2.3c0-0.9,0.1-1.9,0.2-2.9c0.1-1,0.1-2.1,0.1-3.1c0-1,0.1-2.1,0.1-3.1c0-1,0-1.9,0-2.7   c0-2.3,0-4.2,0-5.9c0-1.6,0-2.9-0.1-3.7h0.6c1.4,1.6,3,3.2,4.6,5c1.6,1.8,3.3,3.6,4.9,5.3c1.6,1.7,3.2,3.4,4.6,4.9   c1.5,1.6,2.7,2.9,3.8,4v-4.8c0-2.5,0-4.9-0.1-7.3c0-2.4-0.1-4.6-0.2-6.7c0.5,0.1,0.9,0.2,1.2,0.2c0.3,0,0.7-0.1,1.1-0.2   c0,0.5-0.1,1.3-0.2,2.3c-0.1,1-0.1,2.2-0.2,3.3c-0.1,1.2-0.1,2.3-0.2,3.5c0,1.1-0.1,2.1-0.1,2.7c0,0.6,0,1.3,0,2.1   c0,0.8,0,1.6,0,2.5c0,0.9,0,1.8,0,2.7c0,0.9,0,1.7,0,2.5c0,0.8,0,1.4,0,2c0,0.5,0,0.9,0,1.2H105C102.3,299.3,99.4,296,96.3,292.7z"/>
	<path class="st1" d="M135.3,279.3c-0.6,0-1.3,0-1.9,0c-0.7,0-1.4,0-2,0.1c-0.7,0-1.3,0.1-2,0.1c-0.6,0-1.2,0.1-1.7,0.2   c0.1-0.4,0.2-0.8,0.2-1.1c0-0.3-0.1-0.6-0.2-1.1c1.6,0,3.1,0.1,4.6,0.1c1.5,0,3,0.1,4.6,0.1c1.6,0,3.1,0,4.6-0.1   c1.5,0,3-0.1,4.6-0.1c-0.1,0.5-0.2,0.9-0.2,1.1c0,0.3,0.1,0.7,0.2,1.1c-0.5-0.1-1.1-0.1-1.7-0.2c-0.6,0-1.3-0.1-2-0.1   c-0.7,0-1.4-0.1-2-0.1c-0.7,0-1.3,0-1.9,0c-0.1,2.4-0.1,4.9-0.1,7.4v6.1c0,1.6,0,3.1,0.1,4.6c0.1,1.5,0.1,3,0.2,4.5   c-0.5,0-1.1-0.1-1.7-0.1c-0.6,0-1.2,0-1.7,0.1c0.1-1.5,0.1-3,0.2-4.5c0.1-1.5,0.1-3.1,0.1-4.6v-6.1   C135.4,284.2,135.4,281.8,135.3,279.3z"/>
	<path class="st1" d="M185.1,301.9c-0.3,0-0.6-0.1-0.9-0.1s-0.6,0-0.9,0c-0.3,0-0.6,0-0.9,0c-0.3,0-0.6,0-0.9,0.1   c-0.2-0.5-0.4-1.2-0.7-2c-0.3-0.8-0.6-1.6-0.9-2.4s-0.7-1.7-1-2.6c-0.4-0.9-0.7-1.7-1-2.5c-0.8,0-1.5,0-2.3-0.1c-0.8,0-1.6,0-2.3,0   c-0.7,0-1.5,0-2.2,0c-0.7,0-1.4,0-2.2,0.1c-0.8,1.9-1.4,3.6-2.1,5.3c-0.6,1.7-1.1,3.1-1.4,4.1c-0.4,0-0.8-0.1-1.3-0.1   c-0.5,0-0.9,0-1.3,0.1c1.9-4.2,3.8-8.3,5.6-12.4c1.8-4.1,3.7-8.3,5.5-12.5h0.7c0.6,1.4,1.2,2.9,1.9,4.5c0.7,1.6,1.3,3.2,2,4.9   c0.7,1.6,1.4,3.3,2.1,4.9c0.7,1.6,1.3,3.1,1.9,4.5c0.6,1.4,1.2,2.6,1.6,3.7C184.3,300.5,184.7,301.4,185.1,301.9z M169.3,290.9   c0.6,0,1.3,0,1.9,0c0.7,0,1.3,0,1.9,0c0.7,0,1.3,0,2,0s1.3,0,2-0.1l-4-9L169.3,290.9z"/>
	<path class="st1" d="M206.9,282.1c-0.1-1.5-0.1-3-0.2-4.6c0.3,0,0.6,0.1,0.9,0.1c0.3,0,0.6,0.1,0.9,0.1c0.3,0,0.6,0,0.9-0.1   c0.3,0,0.6-0.1,0.9-0.1c-0.1,1.6-0.1,3.1-0.2,4.6c-0.1,1.5-0.1,3-0.1,4.6c0,3,0,5.6,0,7.8c0,2.2,0,4.2,0.1,5.9c1.7,0,3.3,0,4.8-0.1   c1.5,0,3.2-0.2,5-0.4c-0.1,0.4-0.2,0.8-0.2,1.1c0,0.3,0.1,0.6,0.2,1c-1.1,0-2.2-0.1-3.3-0.1c-1.1,0-2.2,0-3.3,0c-1.1,0-2.2,0-3.3,0   c-1.1,0-2.2,0-3.3,0.1c0.1-1.5,0.1-3,0.2-4.5c0.1-1.5,0.1-3.1,0.1-4.6v-6.1C206.9,285.1,206.9,283.6,206.9,282.1z"/>
	<path class="st1" d="M287.6,301.1c-0.5,0.2-1,0.4-1.7,0.6c-0.7,0.2-1.4,0.3-2.2,0.5c-0.8,0.1-1.6,0.2-2.5,0.2   c-1.9,0-3.6-0.3-5.2-0.8c-1.6-0.5-3-1.3-4.1-2.4c-1.2-1.1-2.1-2.4-2.7-4c-0.7-1.6-1-3.4-1-5.4c0-2,0.3-3.8,1-5.4   c0.7-1.6,1.6-2.9,2.7-4c1.2-1.1,2.6-1.9,4.2-2.5c1.6-0.6,3.4-0.9,5.4-0.9c1.6,0,3,0.2,4.3,0.5c1.3,0.3,2.4,0.7,3.4,1.2   c-0.2,0.3-0.3,0.8-0.5,1.4c-0.1,0.6-0.2,1-0.3,1.4l-0.2,0.1c-0.2-0.3-0.6-0.6-1-1c-0.4-0.4-0.9-0.7-1.5-1c-0.6-0.3-1.2-0.6-1.9-0.8   c-0.7-0.2-1.5-0.3-2.3-0.3c-1.4,0-2.7,0.2-3.9,0.7c-1.2,0.5-2.2,1.1-3.1,2.1c-0.9,0.9-1.6,2.1-2.1,3.6c-0.5,1.4-0.7,3.1-0.7,5.1   c0,2,0.2,3.7,0.7,5.1c0.5,1.4,1.2,2.6,2.1,3.6c0.9,0.9,1.9,1.6,3.1,2.1c1.2,0.5,2.5,0.7,3.9,0.7c0.9,0,1.6-0.1,2.4-0.3   c0.7-0.2,1.4-0.5,2-0.8c0.6-0.3,1.2-0.6,1.6-1s0.9-0.6,1.2-0.9l0.1,0.1l-0.3,2.1C288.4,300.7,288.1,300.9,287.6,301.1z"/>
	<path class="st1" d="M311.7,282.1c-0.1-1.5-0.1-3-0.2-4.6c0.3,0,0.6,0.1,0.9,0.1c0.3,0,0.6,0.1,0.9,0.1s0.6,0,0.9-0.1   c0.3,0,0.6-0.1,0.9-0.1c-0.1,1.6-0.1,3.1-0.2,4.6c-0.1,1.5-0.1,3-0.1,4.6c0,3,0,5.6,0,7.8c0,2.2,0,4.2,0.1,5.9c1.7,0,3.3,0,4.8-0.1   c1.5,0,3.2-0.2,5-0.4c-0.1,0.4-0.2,0.8-0.2,1.1c0,0.3,0.1,0.6,0.2,1c-1.1,0-2.2-0.1-3.3-0.1c-1.1,0-2.2,0-3.3,0c-1.1,0-2.2,0-3.3,0   c-1.1,0-2.2,0-3.3,0.1c0.1-1.5,0.1-3,0.2-4.5s0.1-3.1,0.1-4.6v-6.1C311.8,285.1,311.7,283.6,311.7,282.1z"/>
	<path class="st1" d="M347.3,282.1c-0.1-1.5-0.1-3-0.2-4.6c0.3,0,0.6,0.1,0.9,0.1c0.3,0,0.6,0.1,0.9,0.1c0.3,0,0.6,0,0.9-0.1   c0.3,0,0.6-0.1,0.9-0.1c-0.1,1.6-0.1,3.1-0.2,4.6s-0.1,3-0.1,4.6v6.1c0,1.6,0,3.1,0.1,4.6s0.1,3,0.2,4.5c-0.5,0-1.1-0.1-1.7-0.1   c-0.6,0-1.2,0-1.7,0.1c0.1-1.5,0.1-3,0.2-4.5c0.1-1.5,0.1-3.1,0.1-4.6v-6.1C347.3,285.1,347.3,283.6,347.3,282.1z"/>
	<path class="st1" d="M386.4,292.7c-3.1-3.3-6.2-6.6-9.3-9.9c0,0.7,0,1.6-0.1,2.7c0,1.1,0,2.6,0,4.6c0,0.5,0,1.1,0,1.9   c0,0.7,0,1.5,0,2.3c0,0.8,0,1.6,0.1,2.5c0,0.8,0,1.6,0.1,2.3c0,0.7,0,1.3,0.1,1.9c0,0.5,0,0.9,0.1,1.1c-0.4,0-0.8-0.1-1.2-0.1   c-0.5,0-0.9,0-1.3,0.1c0-0.2,0.1-0.7,0.2-1.3c0.1-0.6,0.1-1.4,0.2-2.3c0-0.9,0.1-1.9,0.2-2.9c0.1-1,0.1-2.1,0.1-3.1   c0-1,0.1-2.1,0.1-3.1c0-1,0-1.9,0-2.7c0-2.3,0-4.2,0-5.9c0-1.6,0-2.9-0.1-3.7h0.6c1.4,1.6,3,3.2,4.6,5c1.6,1.8,3.3,3.6,4.9,5.3   c1.6,1.7,3.2,3.4,4.6,4.9c1.5,1.6,2.7,2.9,3.8,4v-4.8c0-2.5,0-4.9-0.1-7.3c0-2.4-0.1-4.6-0.2-6.7c0.5,0.1,0.9,0.2,1.2,0.2   c0.3,0,0.7-0.1,1.1-0.2c0,0.5-0.1,1.3-0.2,2.3c-0.1,1-0.1,2.2-0.2,3.3c-0.1,1.2-0.1,2.3-0.2,3.5c0,1.1-0.1,2.1-0.1,2.7   c0,0.6,0,1.3,0,2.1c0,0.8,0,1.6,0,2.5c0,0.9,0,1.8,0,2.7c0,0.9,0,1.7,0,2.5c0,0.8,0,1.4,0,2c0,0.5,0,0.9,0,1.2h-0.5   C392.3,299.3,389.4,296,386.4,292.7z"/>
	<path class="st1" d="M420.4,282.1c-0.1-1.5-0.1-3-0.2-4.6c0.3,0,0.6,0.1,0.9,0.1c0.3,0,0.6,0.1,0.9,0.1c0.3,0,0.6,0,0.9-0.1   c0.3,0,0.6-0.1,0.9-0.1c-0.1,1.6-0.1,3.1-0.2,4.6c-0.1,1.5-0.1,3-0.1,4.6v6.1c0,1.6,0,3.1,0.1,4.6c0.1,1.5,0.1,3,0.2,4.5   c-0.5,0-1.1-0.1-1.7-0.1c-0.6,0-1.2,0-1.7,0.1c0.1-1.5,0.1-3,0.2-4.5c0.1-1.5,0.1-3.1,0.1-4.6v-6.1   C420.5,285.1,420.5,283.6,420.4,282.1z"/>
	<path class="st1" d="M465.6,301.1c-0.5,0.2-1,0.4-1.7,0.6c-0.7,0.2-1.4,0.3-2.2,0.5c-0.8,0.1-1.6,0.2-2.5,0.2   c-1.9,0-3.6-0.3-5.2-0.8c-1.6-0.5-3-1.3-4.1-2.4c-1.2-1.1-2.1-2.4-2.7-4c-0.7-1.6-1-3.4-1-5.4c0-2,0.3-3.8,1-5.4   c0.7-1.6,1.6-2.9,2.7-4c1.2-1.1,2.6-1.9,4.2-2.5c1.6-0.6,3.4-0.9,5.4-0.9c1.6,0,3,0.2,4.3,0.5c1.3,0.3,2.4,0.7,3.4,1.2   c-0.2,0.3-0.3,0.8-0.5,1.4c-0.1,0.6-0.2,1-0.3,1.4l-0.2,0.1c-0.2-0.3-0.6-0.6-1-1c-0.4-0.4-0.9-0.7-1.5-1c-0.6-0.3-1.2-0.6-1.9-0.8   c-0.7-0.2-1.5-0.3-2.3-0.3c-1.4,0-2.7,0.2-3.9,0.7c-1.2,0.5-2.2,1.1-3.1,2.1c-0.9,0.9-1.6,2.1-2.1,3.6c-0.5,1.4-0.7,3.1-0.7,5.1   c0,2,0.3,3.7,0.7,5.1c0.5,1.4,1.2,2.6,2.1,3.6c0.9,0.9,1.9,1.6,3.1,2.1c1.2,0.5,2.5,0.7,3.9,0.7c0.9,0,1.6-0.1,2.4-0.3   c0.7-0.2,1.4-0.5,2-0.8c0.6-0.3,1.2-0.6,1.6-1c0.5-0.3,0.9-0.6,1.2-0.9l0.1,0.1l-0.3,2.1C466.4,300.7,466.1,300.9,465.6,301.1z"/>
</g>
<g>
	<path class="st1" d="M54.3,253.8c-0.7-0.1-1.5-0.2-2.1-0.2c-0.7,0-1.4,0-2.1,0c-0.7,0-1.5,0-2.1,0s-1.4,0.1-2.1,0.2   c-0.4-1.2-0.9-2.7-1.5-4.4c-0.6-1.7-1.3-3.6-2.1-5.4c-0.8-1.9-1.6-3.8-2.4-5.8c-0.8-1.9-1.5-3.8-2.2-5.6c-1.7-0.1-3.4-0.1-5.2-0.1   c-1.8,0-3.5,0-5.3,0c-1.7,0-3.3,0-4.9,0c-1.6,0-3.2,0.1-4.9,0.1c-1.7,4.2-3.3,8.1-4.6,11.9c-1.4,3.8-2.4,6.9-3.1,9.3   c-0.9-0.1-1.9-0.2-3-0.2c-1.1,0-2.1,0.1-3,0.2c4.3-9.3,8.5-18.6,12.7-27.9c4.1-9.2,8.3-18.6,12.4-28.2h1.5   c1.3,3.1,2.7,6.4,4.2,10.1c1.5,3.6,3,7.2,4.6,10.9c1.5,3.7,3.1,7.3,4.6,11c1.5,3.6,3,7,4.4,10.1c1.4,3.1,2.6,5.9,3.7,8.4   C52.7,250.7,53.6,252.6,54.3,253.8z M18.8,228.9c1.4,0,2.8,0,4.3,0.1c1.5,0.1,2.9,0.1,4.3,0.1c1.5,0,3,0,4.5,0c1.5,0,3-0.1,4.5-0.1   l-8.9-20.3L18.8,228.9z"/>
	<path class="st1" d="M113.3,224.8c0-7.6,0-13.4-0.1-17.5c-0.1-4.1-0.2-6.9-0.4-8.5c0.6,0.1,1.1,0.2,1.7,0.3   c0.5,0.1,1.1,0.1,1.6,0.1c0.7,0,1.5-0.1,2.4-0.4c-0.2,1.9-0.3,4.1-0.5,6.7c-0.2,2.6-0.3,5.4-0.4,8.3c-0.1,3-0.2,6-0.3,9.1   c-0.1,3.1-0.2,6.2-0.2,9.1c-0.1,3.6-0.6,6.8-1.6,9.6c-1,2.8-2.5,5.2-4.4,7.2c-1.9,2-4.3,3.5-7.1,4.5c-2.8,1-6,1.5-9.7,1.5   c-8,0-13.8-1.8-17.5-5.4c-3.6-3.6-5.4-9.4-5.4-17.2c0-2.5,0.1-4.7,0.2-6.7c0.1-1.9,0.2-3.9,0.2-6c0-4.5-0.1-8.5-0.2-11.9   c-0.1-3.5-0.2-6.4-0.3-8.8c0.6,0.1,1.3,0.2,2.1,0.3c0.7,0.1,1.4,0.1,2.1,0.1c0.6,0,1.2,0,1.7-0.1c0.6-0.1,1.1-0.2,1.7-0.3   c-0.1,1.2-0.2,2.7-0.3,4.6c-0.1,1.9-0.2,4-0.3,6.4c-0.1,2.4-0.2,5-0.2,7.8c-0.1,2.8-0.1,5.7-0.1,8.7c0,1.8,0,3.7,0.1,5.6   c0.1,1.9,0.2,3.8,0.6,5.7c0.3,1.8,0.8,3.6,1.6,5.3c0.7,1.7,1.7,3.2,3.1,4.4c1.3,1.3,3,2.2,5,3c2,0.7,4.5,1.1,7.5,1.1   c2.9,0,5.4-0.4,7.4-1.3c2-0.9,3.6-2,4.9-3.4c1.3-1.4,2.3-3,3-4.8c0.7-1.8,1.2-3.7,1.6-5.7c0.3-2,0.5-4,0.6-5.9   C113.2,228.3,113.3,226.5,113.3,224.8z"/>
	<path class="st1" d="M144.3,219.6c0-3.5-0.1-7-0.2-10.4c-0.1-3.4-0.3-6.8-0.4-10.4c1.5,0.1,3.1,0.2,4.6,0.3c1.5,0.1,3,0.1,4.6,0.1   c1.5,0,3.1-0.1,4.6-0.2c1.5-0.1,3-0.2,4.6-0.2c2.2,0,4.4,0.2,6.4,0.6c2,0.4,3.8,1.1,5.3,2.1c1.5,1,2.7,2.3,3.6,3.9   c0.9,1.6,1.3,3.6,1.3,6c0,2.6-0.6,4.8-1.7,6.6c-1.1,1.8-2.6,3.4-4.2,4.6c-1.7,1.2-3.4,2.1-5.3,2.8c-1.9,0.7-3.6,1.1-5.2,1.3   c0.6,0.8,1.5,1.9,2.6,3.4c1.1,1.4,2.4,3,3.8,4.8c1.4,1.7,2.8,3.6,4.3,5.4c1.5,1.9,2.9,3.7,4.3,5.4c1.4,1.7,2.7,3.3,3.9,4.8   c1.2,1.4,2.2,2.5,3,3.3c-0.8-0.1-1.6-0.2-2.4-0.2c-0.8,0-1.6,0-2.4,0c-0.7,0-1.5,0-2.3,0c-0.8,0-1.6,0.1-2.3,0.2   c-0.8-1.1-2-2.8-3.6-5c-1.6-2.2-3.4-4.6-5.4-7.2c-2-2.6-4-5.1-6-7.6c-2.1-2.5-3.9-4.7-5.6-6.4h-3v5.8c0,3.5,0.1,7,0.2,10.4   c0.1,3.4,0.3,6.8,0.4,10.1c-1.2-0.1-2.5-0.2-3.9-0.2c-1.4,0-2.7,0.1-3.9,0.2c0.2-3.3,0.3-6.7,0.4-10.1c0.1-3.4,0.2-6.9,0.2-10.4   V219.6z M150.8,224.1c0.7,0.2,1.6,0.3,2.4,0.3c0.9,0.1,1.9,0.1,2.9,0.1c1.7,0,3.4-0.2,5.2-0.6c1.8-0.4,3.4-1,4.9-2   c1.5-0.9,2.7-2.2,3.7-3.8c1-1.6,1.5-3.6,1.5-6c0-2.1-0.4-3.8-1.2-5.2c-0.8-1.4-1.8-2.4-3-3.2c-1.2-0.8-2.6-1.3-4-1.6   c-1.4-0.3-2.9-0.4-4.2-0.4c-1.9,0-3.4,0-4.6,0.1c-1.2,0.1-2.3,0.2-3.1,0.3c-0.1,2.9-0.2,5.8-0.3,8.7c-0.1,2.9-0.2,5.8-0.2,8.7   V224.1z"/>
	<path class="st1" d="M203.4,209.2c-0.1-3.4-0.3-6.8-0.4-10.4c0.7,0.1,1.4,0.2,2,0.3s1.3,0.1,1.9,0.1c0.6,0,1.3,0,1.9-0.1   c0.6-0.1,1.3-0.2,2-0.3c-0.2,3.5-0.3,7-0.4,10.4c-0.1,3.4-0.2,6.8-0.2,10.4v13.8c0,3.5,0.1,7,0.2,10.4c0.1,3.4,0.3,6.8,0.4,10.1   c-1.2-0.1-2.5-0.2-3.9-0.2c-1.4,0-2.7,0.1-3.9,0.2c0.2-3.3,0.3-6.7,0.4-10.1c0.1-3.4,0.2-6.9,0.2-10.4v-13.8   C203.6,216,203.5,212.6,203.4,209.2z"/>
	<path class="st1" d="M236.3,219.6c0-3.5-0.1-7-0.2-10.4c-0.1-3.4-0.3-6.8-0.4-10.4c2,0.1,4,0.2,6,0.3c2,0.1,4,0.1,6,0.1   c2,0,4-0.1,6-0.2c2-0.1,4-0.2,6-0.2c4.7,0,8.7,0.6,12.1,1.8c3.3,1.2,6.1,3,8.2,5.2c2.1,2.3,3.7,5,4.7,8.3c1,3.3,1.5,7,1.5,11.1   c0,5.3-0.9,9.8-2.8,13.5c-1.8,3.7-4.2,6.6-7,8.9c-2.9,2.2-6,3.8-9.5,4.8c-3.4,0.9-6.7,1.4-9.9,1.4c-1.8,0-3.6,0-5.4-0.1   c-1.8-0.1-3.6-0.1-5.4-0.1c-1.8,0-3.6,0-5.4,0c-1.8,0-3.6,0.1-5.4,0.2c0.2-3.3,0.3-6.7,0.4-10.1c0.1-3.4,0.2-6.9,0.2-10.4V219.6z    M242.9,233.3c0,5.8,0.2,11.4,0.5,17c1.1,0.3,2.6,0.5,4.6,0.6c1.9,0.1,3.9,0.2,5.9,0.2c2.9,0,5.9-0.3,8.8-1c2.9-0.7,5.6-2,7.9-3.9   c2.3-1.9,4.2-4.6,5.7-7.9c1.5-3.3,2.2-7.6,2.2-12.9c0-4.6-0.6-8.5-1.7-11.5c-1.1-3-2.7-5.4-4.7-7.1c-2-1.7-4.4-2.9-7.2-3.6   c-2.8-0.7-5.8-1-9.1-1c-2.4,0-4.6,0.1-6.7,0.2c-2.1,0.2-4,0.3-5.6,0.6c-0.2,2.6-0.3,5.2-0.4,8c-0.1,2.8-0.1,5.6-0.1,8.5V233.3z"/>
	<path class="st1" d="M308.8,209.1c-0.1-3.4-0.3-6.8-0.4-10.3c2.4,0.1,4.8,0.2,7.2,0.3s4.8,0.1,7.2,0.1c2.4,0,4.8,0,7.1-0.1   c2.3-0.1,4.7-0.2,7.1-0.3c-0.2,0.8-0.2,1.6-0.2,2.4c0,0.8,0.1,1.6,0.2,2.4c-1.7-0.1-3.3-0.2-4.7-0.3c-1.4-0.1-2.9-0.2-4.5-0.3   c-1.6-0.1-3.3-0.2-5.2-0.3c-1.9-0.1-4.1-0.1-6.7-0.1c-0.1,1.7-0.1,3.3-0.2,4.9c-0.1,1.5-0.1,3.3-0.1,5.3c0,2.1,0,4.1,0,6.1   c0,2,0,3.5,0,4.5c2.3,0,4.5,0,6.3-0.1c1.9-0.1,3.6-0.1,5.1-0.2c1.5-0.1,3-0.2,4.3-0.2c1.3-0.1,2.5-0.2,3.7-0.3   c-0.2,0.8-0.2,1.6-0.2,2.5c0,0.8,0.1,1.6,0.2,2.4c-1.4-0.2-3-0.3-4.8-0.4c-1.8-0.1-3.7-0.2-5.5-0.2c-1.8,0-3.6-0.1-5.2-0.1   c-1.6,0-2.9,0-3.9,0c0,0.5,0,1,0,1.6c0,0.6,0,1.3,0,2.1v3.1v4.8c0,3,0,5.6,0,7.5c0,2,0.1,3.5,0.1,4.5c1.8,0,3.6,0,5.6,0   c2,0,4,0,6-0.1c1.9-0.1,3.8-0.2,5.5-0.3c1.7-0.1,3.2-0.3,4.5-0.6c-0.1,0.4-0.2,0.8-0.2,1.2c0,0.5,0,0.9,0,1.2   c0,0.9,0.1,1.5,0.2,2.1c-2.4-0.1-4.8-0.2-7.2-0.2c-2.4,0-4.8,0-7.2,0c-2.5,0-4.9,0-7.3,0c-2.4,0-4.8,0.1-7.3,0.2   c0.2-3.4,0.3-6.8,0.4-10.2c0.1-3.4,0.2-6.8,0.2-10.4v-13.8C309,216,309,212.5,308.8,209.1z"/>
	<path class="st1" d="M385,233.1c-6.9-7.4-13.9-14.9-20.8-22.2c-0.1,1.5-0.1,3.5-0.2,6c-0.1,2.5-0.1,5.9-0.1,10.3c0,1.1,0,2.5,0,4.2   c0,1.7,0.1,3.4,0.1,5.2c0,1.8,0.1,3.7,0.1,5.5c0.1,1.9,0.1,3.6,0.2,5.2c0.1,1.6,0.1,3,0.2,4.2c0.1,1.2,0.1,2,0.2,2.4   c-0.9-0.1-1.8-0.2-2.8-0.2c-1.1,0-2.1,0.1-3,0.2c0.1-0.5,0.2-1.5,0.4-3c0.1-1.4,0.3-3.2,0.4-5.2c0.1-2,0.2-4.2,0.4-6.5   c0.1-2.3,0.2-4.7,0.3-7c0.1-2.3,0.1-4.6,0.2-6.9c0.1-2.2,0.1-4.2,0.1-6c0-5.1,0-9.5,0-13.2c0-3.7-0.1-6.4-0.2-8.3h1.3   c3.3,3.5,6.7,7.3,10.5,11.3c3.7,4,7.4,8,11.1,11.9c3.7,3.9,7.1,7.6,10.4,11.1c3.3,3.5,6.2,6.5,8.6,8.9v-10.9c0-5.6,0-11.1-0.1-16.4   c-0.1-5.3-0.3-10.3-0.5-15c1.1,0.3,2,0.4,2.7,0.4c0.6,0,1.5-0.1,2.6-0.4c-0.1,1.2-0.2,2.9-0.4,5.3c-0.1,2.4-0.3,4.9-0.4,7.5   c-0.1,2.7-0.3,5.3-0.4,7.9s-0.2,4.6-0.2,6.2c0,1.3,0,2.9,0,4.8c0,1.8,0,3.7,0,5.7c0,2,0.1,4,0.1,6c0,2,0.1,3.9,0.1,5.6   c0,1.7,0,3.2,0,4.5c0,1.2,0,2.1,0,2.6h-1.1C398.4,247.8,391.9,240.5,385,233.1z"/>
	<path class="st1" d="M443.1,203c-1.4,0-2.8,0-4.4,0c-1.5,0-3,0.1-4.6,0.2c-1.5,0.1-3,0.2-4.4,0.3s-2.7,0.2-3.8,0.4   c0.3-1,0.4-1.8,0.4-2.6c0-0.6-0.1-1.4-0.4-2.5c3.5,0.1,7,0.2,10.3,0.3c3.4,0.1,6.8,0.1,10.3,0.1c3.5,0,7,0,10.3-0.1   c3.4-0.1,6.8-0.2,10.3-0.3c-0.3,1.1-0.4,1.9-0.4,2.6c0,0.7,0.1,1.5,0.4,2.5c-1.1-0.2-2.4-0.3-3.8-0.4c-1.4-0.1-2.9-0.2-4.4-0.3   c-1.5-0.1-3-0.1-4.6-0.2c-1.5,0-3,0-4.4,0c-0.2,5.5-0.2,11-0.2,16.6v13.8c0,3.5,0.1,7,0.2,10.4c0.1,3.4,0.3,6.8,0.4,10.1   c-1.2-0.1-2.5-0.2-3.9-0.2c-1.4,0-2.7,0.1-3.9,0.2c0.2-3.3,0.3-6.7,0.4-10.1c0.1-3.4,0.2-6.9,0.2-10.4v-13.8   C443.3,214,443.3,208.5,443.1,203z"/>
</g>
<path class="st1" d="M233.3,134.9"/>
<path class="st1" d="M235.4,116.6"/>
<path class="st1" d="M235.4,120.5"/>
<path class="st1" d="M235.4,101.8"/>
<path class="st1" d="M301,30c-1.4-7.6-5-13.8-11.1-18.5c-7.8-6-16.8-7.6-26.4-6.7c-4.6,0.5-9.1,1.8-13.4,3.5  c-7.6,3-15.4,3.6-23.3,1.5c-2.7-0.7-5.3-1.8-8-2.7c-8.4-2.7-16.9-3.5-25.6-1.3c-5.6,1.4-10.7,3.8-14.8,8c-5.9,6-8.7,13.4-9.1,21.7  c-0.3,5.8,0.8,11.4,2.5,16.9c1.6,5.5,4,10.6,6.3,15.8c5,11.2,7.8,22.9,8.3,35.2c0.2,4.2,0.3,8.5,1.1,12.6c1,5.4,2.4,10.6,5,15.4  c2.6,5,6.2,8.9,11.7,10.7c3.4,1.2,6.8,1.6,10.3,0.4c2.4-0.8,4.4-2.3,6.3-4c0.7-0.6,1.4-1.3,2.1-1.9l0,0l0.2-0.2  c0.8-0.7,1.6-1.4,2.4-2.2c0.3-0.3,0.5-0.5,0.8-0.7l34.5-38.8l2.1-2.4c0,0,0,0,0,0c2.7-3.2,5.8-7.3,8.1-12.2c2.8-6,3.7-11.7,2.8-17.6  c-2-12.6-12.3-21.4-22.9-19.8c-6.5,1-12.3,6-15.3,12.9c-0.1-0.2-0.2-0.5-0.4-0.7c-4-7.9-9.7-12.1-16.9-12.3  c-6.5-0.3-12.2,2.9-16.5,9.1c-4.1,5.8-5.6,12.6-4.3,20c0.8,4.6,2.5,8.9,5.5,13.5c3.4,5.3,5.2,7.3,9.1,11.5c0,0,5.4,5.2,6.1,5.7  c4.6,3.1,7.9,3.6,11.6,3.7l0.5,0c1.5-0.2,1.9-0.3,2.9-0.6l1.2-0.4c1.3-0.4,1.5-1,0.8-1c-7.3,0-11.4-3.9-14.3-6.1l-4.1-3.8  c-4-4.3-6.4-7.2-9.6-11.7c-2.8-3.9-4.1-7.8-4.8-11.7c-1-6.1,0.1-11.6,3.5-16.3c3.3-4.6,7.2-6.9,11.8-6.9c0.2,0,0.3,0,0.5,0  c5.3,0.2,9.5,3.3,12.6,9.6c1.1,2.2,1.8,4.3,2,6.6c0,0,0,0,0,0c0,0.8,0.3,1.4,0.8,1.9c0,0,0,0,0,0c0,0,0,0,0,0c0.5,0.5,1.2,0.9,2,0.9  c1.3,0,2.3-0.8,2.7-2c0-0.1,0-0.1,0.1-0.2c0-0.1,0-0.1,0-0.2c0-0.1,0-0.1,0.1-0.2c1-8.3,6.7-15.4,13.2-16.4  c7.8-1.2,15.7,5.9,17.2,15.6c0.8,4.8,0,9.6-2.4,14.7c-2.2,4.7-5.1,8.5-7.7,11.6l-31.9,35.8l-3.3,3.8c-1.7,1.6-3.5,3.2-5.2,4.8  c-0.9,0.9-1.9,1.7-3,2.5c-3.6,2.8-7.5,2-10.6-0.3c-1.2-0.9-2.3-2.1-3.3-3.3c-3-3.7-5.6-7.6-6.9-12.2c-1.1-3.8-1.8-7.7-2-11.7  c-0.3-3.8-0.4-7.6-0.7-11.4c-0.7-8.3-2.5-16.4-5.5-24.3c-1.8-4.9-4-9.7-6-14.5c-2.4-5.6-4.3-11.4-5-17.5c-0.8-6.5,0-12.7,3.1-18.5  c3.6-6.9,9.5-10.9,17-12.6c8.2-1.9,16.2-0.8,23.9,2.2c5.7,2.2,11.6,3.6,17.8,3.4c5.7-0.1,11.1-1.4,16.4-3.4c4.6-1.8,9.3-3,14.3-3.1  c7.6-0.2,14.4,2,20.1,7.1c4.4,3.8,6.7,8.8,7.7,14.4c1.4,7.7,0.2,15.2-2.5,22.4c-2.4,6.3-5,12.5-7.6,18.8c-3,7.3-4.9,14.9-5.7,22.8  c-0.4,4.2-0.7,8.3-1,12.5c-0.4,6-1.1,12-3.4,17.7c-1.3,3.3-2.9,6.5-5.3,9.1c0,0,0,0,0,0c-3.2,3.6-8.1,5.4-12.7,4  c-2.7-0.8-4.9-2.5-6.5-4.8c-0.4-0.6-0.9-1.1-1.3-1.8c-1.4-2.2-1.9-3.2-2.5-5.6c-0.2-0.9-0.4-2.2-0.6-3c-0.1-0.2-0.4-0.3-0.4,0.1  c-0.1,0.3-0.1,0.4-0.1,0.5c-0.1,0.6-0.1,0.9-0.2,1.4c-0.1,1.2-0.1,2.2,0.1,3.3c0.1,1,0.3,2.1,0.6,3.1c0.5,1.8,1.5,3.6,2.5,5.1  c0.8,1.2,1.8,2.1,2.9,3.1c0.8,0.6,1.5,1.2,2.7,1.8c4.9,2.6,11.7,2.6,17-1.5c2.1-1.6,3.9-3.6,5.3-5.8c3.4-5.2,5.2-10.9,6.4-16.9  c1.1-5.8,1.2-11.7,1.7-17.6c0.4-3.9,0.8-7.8,1.5-11.7c1.2-6.6,3.6-12.9,6.2-19.1c2.1-5.1,4.4-10.2,6.2-15.5  C301.4,45.9,302.5,38.1,301,30z"/>
</svg>
