<svg xmlns="http://www.w3.org/2000/svg" width="20.539" height="25.572">
  <defs>
    <clipPath id="a">
      <path data-name="Rectangle 11" fill="#fff" d="M0 0h20.539v25.572H0z"/>
    </clipPath>
  </defs>
  <g data-name="Group 48">
    <g data-name="Group 47" clip-path="url(#a)" fill="#fff">
      <path data-name="Path 73" d="M10.27 7.9a2.37 2.37 0 1 0 2.37 2.37 2.373 2.373 0 0 0-2.37-2.37"/>
      <path data-name="Path 74" d="M10.269 0A10.28 10.28 0 0 0 0 10.269c0 4.879 5.3 10.743 9.736 14.8l.547.5.533-.513c4.919-4.733 9.722-9.773 9.722-14.789A10.281 10.281 0 0 0 10.269 0m0 14.219a3.95 3.95 0 1 1 3.95-3.95 3.954 3.954 0 0 1-3.95 3.95"/>
    </g>
  </g>
</svg>
