<svg version="1.1" id="Warstwa_1" xmlns="http://www.w3.org/2000/svg" xmlns:xlink="http://www.w3.org/1999/xlink" x="0" y="0" viewBox="0 0 14.6 18.3" xml:space="preserve">
  <style>
    .st1{fill:#fff}
  </style>
  <defs>
    <path id="SVGID_1_" d="M0 0h14.6v18.2H0z"/>
  </defs>
  <clipPath id="SVGID_00000161615558621050231390000010156244203708112790_">
    <use xlink:href="#SVGID_1_" overflow="visible"/>
  </clipPath>
  <g id="Group_47" clip-path="url(#SVGID_00000161615558621050231390000010156244203708112790_)">
    <path id="Path_73" class="st1" d="M7.3 5.6c-.9 0-1.7.8-1.7 1.7S6.4 9 7.3 9 9 8.2 9 7.3c0-.9-.8-1.7-1.7-1.7"/>
    <path id="Path_74" class="st1" d="M7.3 0C3.3 0 0 3.3 0 7.3c0 3.5 3.8 7.6 6.9 10.5l.4.4.4-.4c3.5-3.4 6.9-7 6.9-10.5 0-4-3.3-7.3-7.3-7.3m0 10.1c-1.6 0-2.8-1.3-2.8-2.8s1.3-2.8 2.8-2.8 2.8 1.3 2.8 2.8c0 1.6-1.2 2.8-2.8 2.8"/>
  </g>
</svg>
