<svg version="1.1" id="Warstwa_1" xmlns="http://www.w3.org/2000/svg" xmlns:xlink="http://www.w3.org/1999/xlink" x="0" y="0" viewBox="0 0 13.8 14.5" xml:space="preserve">
  <style>
    .st0{clip-path:url(#SVGID_00000061459017769308738940000016861324125186188686_)}
  </style>
  <g id="_1">
    <defs>
      <path id="SVGID_1_" d="M0 0h13.8v14.5H0z"/>
    </defs>
    <clipPath id="SVGID_00000108296850769969748540000011902310924808100515_">
      <use xlink:href="#SVGID_1_" overflow="visible"/>
    </clipPath>
    <g id="Group_5" clip-path="url(#SVGID_00000108296850769969748540000011902310924808100515_)">
      <path id="Path_29" d="M13.8 3.2c0-.8-.4-1.7-.9-2.3-.4-.4-1-.7-1.5-.8-1-.2-1.9-.1-2.8.2-.2.1-.5.2-.8.3-.3 0-.6.1-.9.1-.3 0-.6-.1-.9-.1-.3-.1-.6-.2-.8-.3C4.3 0 3.4-.1 2.5.1 1.9.3 1.4.5 1 1c-.6.6-1 1.4-1 2.2C0 3.8.1 4.4.3 5c.2.6.4 1.1.7 1.7.4 1.1.7 2.3.8 3.6 0 .4 0 .9.1 1.3.1.6.3 1.1.5 1.6s.7.9 1.2 1.1c.3.1.7.2 1.1 0 .2-.1.5-.2.7-.4l.2-.2c.1-.1.2-.1.3-.2l.1-.1 1-1.1 1 1.1.1.1c.1.1.2.2.3.2l.2.2c.2.2.4.3.7.4.4.1.7.1 1.1 0 .5-.2 1-.6 1.2-1.1.3-.5.4-1 .5-1.6.1-.4.1-.9.1-1.3.1-1.3.3-2.5.9-3.7.3-.5.5-1.1.7-1.7-.1-.5 0-1.1 0-1.7" fill="#3255a2"/>
    </g>
  </g>
</svg>
